<svg width="50" height="50" viewBox="0 0 1976 2017" fill="none" xmlns="http://www.w3.org/2000/svg">

<path d="M122.5 102.5C-45 281.5 1.50014 652.5 27.5001 728.5C53.5 804.5 78.5 834 122.5 874C166.5 914 273.5 991 324 913C342 902.5 324 860 324 860C353.485 855.314 380 881 399.5 848C419 815 413 790 413 790C413 790 477.5 821 514 790C550.5 759 538.5 713.5 558.5 728.5C578.5 743.5 645.5 728.5 659 689.5C672.5 650.5 711 709.5 741 661.5C771 613.5 755.5 613.5 771 577.5C786.5 541.5 851 601.5 877 538.5C903 475.5 877 443.5 877 443.5C908.2 471.1 929 482.5 948.5 463C968 443.5 960.385 441.364 968 427.5C987.28 455.455 953.772 401.994 968 394.5C982.228 387.006 994.512 382.92 1011.5 375.5L1018.5 331.5V287.5C1018.5 287.5 1024.5 278 986.5 220C948.5 162 954 152.5 877 102.5C800 52.5 756 32 659 13C562 -6.00004 225.3 -18.3 122.5 102.5Z" fill="#FAD546"/>

<path d="M1011.5 375.5C994.512 382.92 982.228 387.006 968 394.5C953.772 401.994 987.28 455.455 968 427.5C960.385 441.364 968 443.5 948.5 463C929 482.5 908.2 471.1 877 443.5C877 443.5 903 475.5 877 538.5C851 601.5 786.5 541.5 771 577.5C755.5 613.5 771 613.5 741 661.5C711 709.5 672.5 650.5 659 689.5C645.5 728.5 578.5 743.5 558.5 728.5C538.5 713.5 550.5 759 514 790C477.5 821 413 790 413 790C413 790 419 815 399.5 848C380 881 353.485 855.314 324 860C324 860 342 902.5 324 913C273.5 991 166.5 914 122.5 874C78.5 834 53.5 804.5 27.5001 728.5C1.50014 652.5 -45 281.5 122.5 102.5C225.3 -18.3 562 -6.00004 659 13C756 32 800 52.5 877 102.5C954 152.5 948.5 162 986.5 220C1024.5 278 1018.5 287.5 1018.5 287.5V331.5M1011.5 375.5C1011.5 375.5 1015.77 348.683 1018.5 331.5M1011.5 375.5L1018.5 331.5" stroke="black"/>

<path d="M330.732 879.335C349.674 895.363 371.917 904.282 394.672 913.186C415.288 921.253 434.634 924.218 450.576 941.223C477.437 969.875 483.056 1018.44 500.668 1053.03C517.101 1085.31 559.457 1084.3 587.859 1097.82C614.164 1110.35 629.977 1130.2 634.703 1159.03C641.807 1202.36 667.447 1225.49 713.345 1226.9C751.019 1228.06 788.285 1224.16 803.613 1263.66C809.015 1277.58 818.871 1290.85 826.18 1304.01C833.614 1317.39 850.011 1321.78 859.689 1333.07C879.195 1355.83 921.86 1347.09 948.589 1347.09C984.697 1347.09 1002.3 1359.11 1014.92 1393.59C1023.2 1416.18 1019.44 1452.31 1044.67 1459.41C1071.77 1467.03 1091.11 1471.51 1114.76 1487.28C1126.69 1495.22 1139.23 1502.14 1150.67 1510.87C1159.58 1517.67 1166.89 1532.89 1175.63 1537.88C1184.08 1542.71 1192.66 1545.52 1200.25 1551.73C1212.91 1562.09 1233.78 1576.78 1249.14 1581.65C1253.77 1583.12 1274.44 1587.46 1275.47 1593.27C1276.59 1599.63 1285.25 1603.34 1290.86 1605.58C1296.77 1607.95 1295.68 1614.81 1304.7 1614.81C1310.66 1614.81 1318.25 1618.51 1324.02 1620.29C1342.2 1625.88 1354.51 1626.15 1367.79 1639.43" stroke="white" stroke-width="10" stroke-linecap="round"/>

<path d="M398.433 851.639C437.485 852.279 482.895 852.668 519.474 867.71C559.5 884.169 579.441 924.03 588.201 964.645C595.86 1000.16 592.809 1039.29 590.765 1075.26C590.041 1088.01 589.772 1100.73 586.149 1113.04C584.13 1119.91 581.663 1126.71 584.44 1133.73C600.664 1174.72 658.863 1193.98 697.275 1204.16C747.364 1217.45 796.324 1222.96 848.235 1223.82C908.539 1224.83 987.504 1217.94 1040.23 1252.72C1080.19 1279.08 1088.87 1332.21 1090.49 1376.66C1091.83 1413.68 1090 1450.77 1091 1487.79C1091.8 1517.21 1099.84 1539.64 1126.39 1554.98C1149.8 1568.51 1186.49 1563.48 1212.56 1565.58C1249.82 1568.58 1281.18 1569.18 1312.06 1591.56C1365.12 1630.04 1315.34 1696.56 1326.07 1748.51C1330.1 1767.99 1353.31 1781.76 1367.79 1792.27C1398.8 1814.79 1432.02 1833.69 1465.07 1852.97C1494.67 1870.23 1525.65 1886.46 1553.97 1905.79C1592.85 1932.34 1598.81 1970.28 1613.97 2011.79" stroke="white" stroke-width="10" stroke-linecap="round"/>

<path d="M555.376 743.933C600.158 768.359 636.503 797.76 687.017 812.147C719.174 821.306 751.459 825.58 784.637 828.73C816.953 831.798 861.198 830.218 890.462 846.852C922.14 864.858 923.08 915.537 924.313 946.352C925.589 978.265 919.21 1015.13 925.339 1046.54C929.8 1069.4 956.019 1084.96 973.55 1096.8C997.876 1113.23 1023.24 1124.98 1051.68 1132.02C1106.32 1145.55 1170.46 1148.27 1219.74 1177.49C1248.21 1194.38 1275.84 1217.89 1278.2 1253.4C1280.77 1291.85 1272.42 1343.29 1300.77 1374.78C1330.13 1407.41 1378.91 1407.37 1419.08 1414.1C1445.51 1418.54 1469.44 1430.05 1489 1448.98C1498.88 1458.54 1508.18 1474.63 1509.35 1488.64C1510.79 1506 1535.7 1524.2 1548.32 1533.61C1575.89 1554.13 1605.55 1564.64 1635.17 1581.31C1651.67 1590.58 1661.52 1607.81 1653.47 1626.44C1639.42 1658.92 1632.89 1682.4 1658.42 1712.26C1688.08 1746.95 1735.06 1763.33 1770.92 1790.22" stroke="white" stroke-width="10" stroke-linecap="round"/>

<path d="M746.17 657.768C747.637 662.902 750.637 667.208 753.351 671.787C765.839 692.861 774.366 713.922 778.995 738.12C788.659 788.635 773.621 839.103 760.018 887.541C743.573 946.102 712.042 998.488 698.13 1057.82C688.988 1096.81 683.911 1133.77 711.807 1165.53C751.244 1210.42 817.457 1224.04 874.05 1231.86C917.061 1237.8 960.754 1238.8 1003.98 1242.46C1046.73 1246.08 1089.16 1252.42 1131.86 1256.48C1192.01 1262.2 1247.67 1265.18 1305.56 1284.17C1339.31 1295.24 1364.13 1305.78 1375.31 1341.62C1388.25 1383.11 1362.86 1426.63 1346.76 1463.51C1336.6 1486.8 1318.66 1520.51 1333.6 1545.75C1343.49 1562.47 1362.99 1572.43 1379.76 1580.62C1418.99 1599.8 1460.68 1614.02 1502.68 1625.76C1557.06 1640.95 1614.01 1636.76 1668.34 1650.55C1702.32 1659.17 1736.85 1670.54 1769.55 1683.2C1788.14 1690.4 1808.54 1696.42 1817.08 1715.68C1824.57 1732.59 1826.78 1758.16 1821.86 1776.2C1815.71 1798.78 1803.78 1819.34 1797.93 1842.19C1792.91 1861.82 1792.46 1880.98 1792.46 1901.01" stroke="white" stroke-width="10" stroke-linecap="round"/>

<path d="M856.954 565.448C894.053 594.598 945.219 615.132 987.911 634.517C1022.98 650.443 1054.93 668.761 1092.88 677.942C1123.84 685.43 1154.63 687.844 1184.52 699.483C1210.87 709.745 1219.28 745.986 1220.08 771.629C1221.89 829.472 1178.74 881.265 1191.36 940.882C1201.29 987.814 1250.77 1019.41 1289.15 1042.09C1338.06 1071.01 1392.95 1067.99 1445.06 1084.49C1482.18 1096.24 1513.46 1113.75 1532.94 1148.77C1555.58 1189.48 1555.96 1242.21 1550.38 1287.25C1545.66 1325.37 1532.85 1362.61 1522.34 1399.4C1514.46 1426.98 1528.13 1438.86 1550.72 1454.45C1565.44 1464.61 1580.4 1468.06 1597.9 1471.55C1633.51 1478.64 1669.35 1484.42 1704.93 1491.72C1753.61 1501.72 1810.78 1504.28 1853.32 1532.41C1902.4 1564.86 1897.09 1620.45 1897.09 1673.28" stroke="white" stroke-width="10" stroke-linecap="round"/>

<path d="M764.634 574.68C831.247 607.174 873.292 674.607 949.957 687.857C1015.36 699.161 1080.88 713.16 1147.59 713.16C1196.5 713.16 1243.9 701.543 1261.79 757.268C1273.93 795.058 1259.79 840.848 1287.78 874.206C1359.07 959.166 1481.41 943.398 1577.05 971.655C1609.52 981.248 1643.51 992.706 1669.37 1015.42C1693.35 1036.49 1693.98 1057.54 1693.98 1087.91C1693.98 1111.4 1691.9 1136.01 1694.67 1159.37C1698.75 1193.8 1721.96 1212.04 1749.38 1231.52C1796.07 1264.69 1843.23 1284.78 1896.75 1303.32C1915.31 1309.75 1937.34 1315.74 1949.4 1332.73C1964.69 1354.27 1965.38 1380.84 1970.94 1405.56" stroke="white" stroke-width="10" stroke-linecap="round"/>

<path d="M949.179 476.423C982.296 476.423 1083.48 456.917 1102.22 494.39C1121.14 532.237 1105.11 578.154 1105.11 618.233C1105.11 732.213 1092.6 847.945 1197.51 916.611C1268.28 962.933 1353.51 983.462 1422.73 1030.83C1476.67 1067.73 1473.4 1135.68 1474.71 1193.81C1477 1295.77 1582.98 1317.88 1660.8 1352.95C1701.22 1371.17 1736.15 1400.36 1769.24 1429.31" stroke="white" stroke-width="10" stroke-linecap="round"/>

<path d="M931.176 477.13H941.724" stroke="white" stroke-width="10" stroke-linecap="round"/>

<g class="segment">

<path d="M123.225 863.095C127.59 865.954 132.396 868.849 137.116 871.084C138.812 871.888 139.922 871.025 140.429 873.308C140.8 874.975 143.803 875.46 144.651 876.985C146.032 879.472 149.148 880.054 151.46 881.525C160.416 887.224 167.455 892.937 177.515 896.595C181.523 898.052 184.901 902.582 188.772 904.13C193.029 905.833 196.341 913.232 201.028 913.753C203.325 914.008 206.651 915.138 209.017 915.796C211.355 916.445 212.662 917.552 214.737 918.474C220.07 920.844 226.38 920.449 232.076 922.559C233.965 923.259 236.566 924.168 238.431 924.375C241.405 924.705 243.126 926.863 245.74 928.006C250.318 930.009 256.811 929.776 261.718 930.866C268.584 932.392 277.425 930.911 284.414 930.911C292.059 930.911 297.409 925.528 304.16 922.378C314.274 917.658 316.87 906.259 316.87 895.778C316.87 891.42 316.87 887.062 316.87 882.705C316.87 879.852 317.098 877.721 315.689 875.306C314.983 874.094 314.418 871.019 314.418 869.632" stroke="#F9C912" stroke-width="100" stroke-linecap="round"/>

<path d="M328.308 853.29C334.194 853.29 340.08 853.29 345.966 853.29C350.967 853.29 358.267 854.506 362.943 852.473C369.593 849.582 383.314 853.474 383.869 843.486C384.036 840.469 388.388 840.07 389.497 838.129C390.2 836.9 389.588 833.788 389.588 832.41C389.588 829.875 390.591 829.494 391.313 827.508C391.988 825.65 395.014 820.189 396.533 818.974C398.826 817.14 399.29 811.321 399.393 808.534C399.525 804.974 400.21 801.424 400.21 797.73" stroke="#F9C912" stroke-width="100" stroke-linecap="round"/>

<path d="M424.888 778.492C433.337 786.94 439.979 787.783 451.6 787.783C457.407 787.783 463.214 787.783 469.021 787.783C475.64 787.783 479.632 784.827 485.861 783.202C489.94 782.138 493.129 780.815 497.41 780.815C499.901 780.815 503.175 777.454 505.411 776.234C510.693 773.353 513.53 766.698 516.895 762.491C518.754 760.168 521.023 756.881 522.315 754.62C524.133 751.438 522.616 746.877 524.767 743.651" stroke="#F9C912" stroke-width="100" stroke-linecap="round"/>

<path d="M564.254 712.294C568.334 712.665 570.432 715.778 574.706 715.778C577.825 715.778 580.943 715.778 584.062 715.778C589.237 715.778 594.207 715.226 599.224 713.971C604.033 712.769 613.381 712.212 617.161 708.81C619.747 706.482 624.589 703.357 628.13 703.003C633.565 702.459 637.53 697.448 642.26 695.196C644.624 694.07 647.873 695.938 647.873 691.97C647.873 689.264 649.034 687.168 649.034 684.421" stroke="#F9C912" stroke-width="100" stroke-linecap="round"/>

<path d="M672.262 664.677C677.008 664.677 680.859 667.721 685.553 668.097C688.539 668.336 691.59 668.161 694.586 668.161C701.224 668.161 707.589 668.441 714.072 667C718.79 665.951 722.201 663.864 722.201 658.87C722.201 655.512 722.561 656.833 724.266 655.128C725.3 654.094 724.524 649.863 724.524 648.418" stroke="#F9C912" stroke-width="100" stroke-linecap="round"/>

<path d="M801.746 559.436C821.7 559.436 844.423 561.496 855.527 541.509C858.42 536.303 863.564 530.767 863.564 524.337C863.564 519.244 865.26 516.572 865.968 511.974C866.72 507.083 868.509 501.882 868.509 497C868.509 490.228 872.218 484.622 872.218 477.836" stroke="#F9C912" stroke-width="100" stroke-linecap="round"/>

<path d="M898.182 444.454C898.676 446.679 907.672 453.991 909.996 454.414C918.223 455.91 927.737 456.842 935.96 454.62C944.454 452.324 947.542 447.328 952.719 441.226C957.5 435.592 963.709 432.454 963.709 424.673" stroke="#F9C912" stroke-width="100" stroke-linecap="round"/>

<path d="M977.029 383.037C980.021 382.705 982.548 378.394 985.763 377.625C989.661 376.693 992.818 375.01 996.372 373.381C998.568 372.375 999.623 371.452 1001.08 369.998C1001.99 369.087 1003.6 368.554 1003.6 366.985" stroke="#F9C912" stroke-width="100" stroke-linecap="round"/>
</g>
</svg>